<svg width="60" height="60" viewBox="0 0 60 60" fill="none" xmlns="http://www.w3.org/2000/svg">
<g clip-path="url(#clip0_174_77)">
<path d="M36.2632 59.9995C38.2694 59.9995 40.0188 58.2501 40.0188 56.2439V47.4729H42.5265C44.0313 47.4729 45.0342 46.4697 45.0342 44.9653V19.9141H14.9658V44.9655C14.9658 46.4701 15.9689 47.4731 17.4735 47.4731H19.9814V56.2441C19.9814 58.2503 21.7305 59.9997 23.737 59.9997C25.743 59.9997 27.4922 58.2503 27.4922 56.2441V47.4731H32.5078V56.2441C32.5076 58.2501 34.2571 59.9995 36.2632 59.9995Z" fill="#922444"/>
<path d="M51.2976 44.9655C53.3038 44.9655 55.0528 43.2162 55.0528 41.2098V23.6681C55.0528 21.6725 53.3038 19.9141 51.2976 19.9141C49.2913 19.9141 47.542 21.6725 47.542 23.6681V41.2098C47.542 43.216 49.2911 44.9655 51.2976 44.9655Z" fill="#922444"/>
<path d="M8.70248 44.9655C10.7088 44.9655 12.4581 43.2162 12.4581 41.2098V23.6681C12.4581 21.6725 10.709 19.9141 8.70248 19.9141C6.69634 19.9141 4.94727 21.6725 4.94727 23.6681V41.2098C4.94727 43.216 6.69634 44.9655 8.70248 44.9655Z" fill="#922444"/>
<path d="M42.0248 0.378405C41.5234 -0.126135 40.777 -0.126135 40.2757 0.378405L36.9123 3.73059L36.7571 3.88556C34.7628 2.88689 32.5268 2.38816 30.0367 2.38335C30.0245 2.38335 30.0125 2.38295 30.0003 2.38295H29.9999C29.9873 2.38295 29.9757 2.38335 29.9631 2.38335C27.4732 2.38816 25.2372 2.88689 23.2431 3.88556L23.0875 3.73059L19.7243 0.378405C19.2226 -0.126135 18.4766 -0.126135 17.9752 0.378405C17.4735 0.880142 17.4735 1.62474 17.9752 2.12608L21.2287 5.38016C20.1804 6.08011 19.2298 6.93662 18.4031 7.91627C16.424 10.2622 15.1616 13.3152 14.988 16.6232C14.9864 16.6576 14.983 16.6917 14.9814 16.7261C14.9708 16.9513 14.9658 17.1778 14.9658 17.405H45.0342C45.0342 17.1778 45.0288 16.9513 45.0186 16.7261C45.017 16.6917 45.0136 16.6576 45.0116 16.6232C44.8384 13.3152 43.5756 10.262 41.5965 7.91647C40.7702 6.93682 39.8192 6.08031 38.7709 5.38036L42.0248 2.12628C42.5265 1.62474 42.5265 0.880142 42.0248 0.378405ZM23.7322 13.0265C22.6947 13.0265 21.8536 12.1854 21.8536 11.1479C21.8536 10.1104 22.6947 9.26932 23.7322 9.26932C24.7697 9.26932 25.6108 10.1104 25.6108 11.1479C25.6108 12.1854 24.7697 13.0265 23.7322 13.0265ZM36.2678 13.0265C35.2303 13.0265 34.3892 12.1854 34.3892 11.1479C34.3892 10.1104 35.2303 9.26932 36.2678 9.26932C37.3053 9.26932 38.1464 10.1104 38.1464 11.1479C38.1464 12.1854 37.3053 13.0265 36.2678 13.0265Z" fill="#922444"/>
</g>
<defs>
<clipPath id="clip0_174_77">
<rect width="60" height="60" fill="white"/>
</clipPath>
</defs>
</svg>
