<svg width="60" height="60" viewBox="0 0 60 60" fill="none" xmlns="http://www.w3.org/2000/svg">
<path d="M8.0138 22.0559C2.94134 30.8582 6.166 44.2161 11.7753 52.3155C14.5752 56.3649 17.41 59.9997 21.2927 59.9997C21.3659 59.9997 21.4392 59.9983 21.5144 59.9953C23.3386 59.9226 24.6568 59.3609 25.9314 58.8182C27.3623 58.2083 28.8423 57.5778 31.1636 57.5778C33.372 57.5778 34.7813 58.1879 36.1442 58.7776C37.4874 59.3588 38.8709 59.9599 40.9152 59.9216C45.2888 59.8401 47.974 55.9179 50.3431 52.4578C52.8153 48.845 54.0554 45.3373 54.4739 43.9968L54.4908 43.9435C54.5705 43.7053 54.4579 43.4452 54.2295 43.3403C54.2232 43.3374 54.2 43.3277 54.1935 43.325C53.4234 43.01 46.6676 40.013 46.5966 31.8443C46.5307 25.2077 51.6647 21.6933 52.6943 21.0563L52.7423 21.0264C52.8539 20.9546 52.9316 20.8407 52.9579 20.7105C52.9843 20.5805 52.9568 20.4451 52.882 20.3357C49.3383 15.1498 43.9068 14.3682 41.72 14.2742C41.4027 14.2425 41.0752 14.2266 40.7463 14.2266C38.1779 14.2266 35.7175 15.1966 33.7408 15.976C32.3764 16.514 31.1978 16.9787 30.3849 16.9787C29.4716 16.9787 28.2863 16.5083 26.9138 15.9638C25.0784 15.2353 22.9981 14.4099 20.7958 14.4099C20.7432 14.4099 20.6915 14.4105 20.6406 14.4115C15.5199 14.4868 10.6813 17.4164 8.0138 22.0559Z" fill="#922444"/>
<path d="M41.7245 0.000377987C38.6236 0.126673 34.9038 2.03546 32.6805 4.63966C30.7909 6.82857 28.9451 10.4781 29.4314 14.1568C29.4619 14.387 29.6492 14.5646 29.8807 14.5825C30.09 14.5989 30.3037 14.6071 30.5165 14.6073C33.5486 14.6073 36.8195 12.9299 39.0532 10.2289C41.4043 7.37684 42.593 3.71664 42.2334 0.438083C42.2051 0.181165 41.9791 -0.0096548 41.7245 0.000377987Z" fill="#922444"/>
</svg>
