<svg width="156" height="74" viewBox="0 0 156 74" fill="none" xmlns="http://www.w3.org/2000/svg">
<g opacity="0.4">
<path d="M144 6C146.917 6 149.715 6.36015 151.778 7.00122C153.841 7.64228 155 8.51176 155 9.41837V73H133V9.41837C133 8.51176 134.159 7.64228 136.222 7.00122C138.285 6.36015 141.083 6 144 6V6Z" fill="#6FC7B7" stroke="#6FC7B7"/>
<path d="M112.5 22C116.08 22 119.514 22.2985 122.046 22.8299C124.578 23.3612 126 24.0819 126 24.8333V73H99V24.8333C99 24.0819 100.422 23.3612 102.954 22.8299C105.486 22.2985 108.92 22 112.5 22V22Z" fill="#6FC7B7" stroke="#6FC7B7"/>
<path d="M79 1C82.4478 1 85.7544 1.46254 88.1924 2.28587C90.6304 3.1092 92 4.22588 92 5.39024V73H66V5.39024C66 4.22588 67.3696 3.1092 69.8076 2.28587C72.2456 1.46254 75.5522 1 79 1V1Z" fill="#6FC7B7" stroke="#6FC7B7"/>
<path d="M13.5 44C16.8152 44 19.9946 44.1756 22.3388 44.4882C24.683 44.8007 26 45.2246 26 45.6667V73H1V45.6667C1 45.2246 2.31696 44.8007 4.66117 44.4882C7.00537 44.1756 10.1848 44 13.5 44V44Z" fill="#6FC7B7" stroke="#6FC7B7"/>
<path d="M46 29C49.4478 29 52.7544 29.2664 55.1924 29.7406C57.6304 30.2149 59 30.8581 59 31.5287V73H33V31.5287C33 30.8581 34.3696 30.2149 36.8076 29.7406C39.2456 29.2664 42.5522 29 46 29V29Z" fill="#6FC7B7" stroke="#6FC7B7"/>
</g>
</svg>
